<svg width="16" height="12" viewBox="0 0 16 12" fill="none" xmlns="http://www.w3.org/2000/svg">
<g clip-path="url(#clip0_1040_527)">
<path d="M10.245 7.03027L8.97428 8.30529C8.45898 8.8224 7.55231 8.83354 7.02587 8.30529L5.75509 7.03027L1.19104 11.6091C1.36093 11.6877 1.54824 11.7346 1.74738 11.7346H14.2528C14.4519 11.7346 14.6392 11.6878 14.809 11.6092L10.245 7.03027Z" fill="#E1EFEB"/>
<path d="M14.2527 1.06641H1.74732C1.54818 1.06641 1.36087 1.11329 1.19104 1.19185L6.06805 6.08504C6.06838 6.08536 6.06876 6.08542 6.06909 6.08575C6.06942 6.08607 6.06947 6.08652 6.06947 6.08652L7.65526 7.67755C7.8237 7.84599 8.17639 7.84599 8.34483 7.67755L9.93029 6.08679C9.93029 6.08679 9.93068 6.08607 9.931 6.08575C9.931 6.08575 9.93171 6.08536 9.93204 6.08504L14.8089 1.19182C14.6391 1.11323 14.4518 1.06641 14.2527 1.06641Z" fill="#E1EFEB"/>
<path d="M0.555645 1.81348C0.467752 1.99122 0.413818 2.18852 0.413818 2.39987V10.4009C0.413818 10.6123 0.467692 10.8096 0.555615 10.9873L5.12758 6.40055L0.555645 1.81348Z" fill="#E1EFEB"/>
<path d="M15.4445 1.81348L10.8726 6.40061L15.4445 10.9875C15.5324 10.8097 15.5863 10.6124 15.5863 10.401V2.39993C15.5863 2.18852 15.5324 1.99122 15.4445 1.81348Z" fill="#E1EFEB"/>
</g>
<defs>
<clipPath id="clip0_1040_527">
<rect width="15.1724" height="11" fill="white" transform="translate(0.413818 0.900391)"/>
</clipPath>
</defs>
</svg>
