<svg width="11" height="15" viewBox="0 0 11 15" fill="none" xmlns="http://www.w3.org/2000/svg">

              <path
                d="M5.24999 0.527039C3.85818 0.528885 2.52389 1.0826 1.53973 2.06677C0.555562 3.05093 0.00184628 4.38521 0 5.77703C0 9.54609 4.89124 14.2667 5.09906 14.4658C5.13948 14.5051 5.19363 14.527 5.24999 14.527C5.30636 14.527 5.36051 14.5051 5.40093 14.4658C5.60874 14.2667 10.5 9.54609 10.5 5.77703C10.4981 4.38521 9.94443 3.05093 8.96026 2.06677C7.9761 1.0826 6.64181 0.528885 5.24999 0.527039V0.527039ZM5.24999 8.18328C4.77408 8.18328 4.30886 8.04216 3.91316 7.77775C3.51745 7.51335 3.20904 7.13755 3.02691 6.69786C2.84479 6.25818 2.79714 5.77436 2.88998 5.3076C2.98283 4.84083 3.212 4.41208 3.54852 4.07556C3.88504 3.73904 4.31379 3.50987 4.78056 3.41702C5.24733 3.32418 5.73114 3.37183 6.17083 3.55395C6.61051 3.73607 6.98631 4.04449 7.25072 4.44019C7.51512 4.8359 7.65624 5.30112 7.65624 5.77703C7.65586 6.41509 7.40222 7.02691 6.95105 7.47808C6.49987 7.92926 5.88805 8.1829 5.24999 8.18328Z"
                fill="#E1EFEB" />
            </svg>
