<svg width="59" height="60" viewBox="0 0 59 60" fill="none" xmlns="http://www.w3.org/2000/svg">
<path d="M36.6445 59.1567C34.6874 59.1567 32.7531 58.7452 30.9524 57.9135C26.6087 55.9048 23.6303 51.9996 22.777 47.2051C21.6903 41.0955 24.1395 34.3124 29.3338 29.0604C32.0903 26.2717 35.2307 24.122 38.4537 22.4701C35.3303 19.9808 31.527 18.4757 27.4393 18.3807C22.0374 18.2598 16.9256 20.2858 13.0625 24.1018C9.19953 27.9207 7.06891 32.3986 7.06891 36.4449H0V17.739C0 8.12412 7.64921 0 16.7037 0C22.9761 0 28.5885 5.03621 30.099 11.4135C36.124 12.1732 41.5714 15.1288 45.7104 19.5232C50.4154 18.0498 54.8217 17.4138 57.9736 17.1404L58.5738 24.2659C56.665 24.4299 53.6156 24.8127 50.1537 25.7077C52.1904 29.5093 53.4478 33.8548 53.6753 38.4853C54.0394 45.8496 50.9331 52.5291 45.3633 56.3508C42.6552 58.207 39.62 59.1567 36.6445 59.1567ZM43.3436 28.0589C40.1377 29.492 36.9717 31.4461 34.3318 34.1167C30.7761 37.714 29.0579 42.1343 29.7349 45.936C30.0478 47.7001 31.0235 50.08 33.8938 51.4096C36.1979 52.4744 38.9316 52.1204 41.3951 50.4311C44.9025 48.0253 46.8539 43.6941 46.6121 38.845C46.4158 34.8736 45.2353 31.1813 43.3436 28.0589ZM16.7037 7.15141C11.572 7.15141 7.07175 12.0984 7.07175 17.7361V20.0758C7.41026 19.7016 7.763 19.3362 8.12426 18.9793C12.175 14.9762 17.2385 12.4207 22.7172 11.5516C21.5822 9.02201 19.224 7.15141 16.7037 7.15141Z" fill="#E1EFEB"/>
</svg>
