<svg width="15" height="10" viewBox="0 0 15 10" fill="none" xmlns="http://www.w3.org/2000/svg">
<g clip-path="url(#clip0_1639_8573)">
<path d="M9.44837 5.54675L8.34516 6.6537C7.89778 7.10264 7.11063 7.11231 6.65358 6.6537L5.55032 5.54675L1.58789 9.52204C1.73539 9.59025 1.89801 9.63095 2.0709 9.63095H12.9278C13.1007 9.63095 13.2633 9.5903 13.4107 9.52207L9.44837 5.54675Z" fill="black"/>
<path d="M12.9278 0.369019H2.07084C1.89796 0.369019 1.73533 0.409719 1.58789 0.477923L5.82202 4.7261C5.82231 4.72639 5.82264 4.72644 5.82292 4.72672C5.82321 4.727 5.82326 4.72739 5.82326 4.72739L7.20001 6.10869C7.34624 6.25493 7.65245 6.25493 7.79868 6.10869L9.17515 4.72762C9.17515 4.72762 9.17548 4.727 9.17577 4.72672C9.17577 4.72672 9.17638 4.72639 9.17667 4.7261L13.4107 0.477897C13.2633 0.409668 13.1007 0.369019 12.9278 0.369019Z" fill="black"/>
<path d="M1.03719 1.0177C0.960886 1.17201 0.914062 1.34331 0.914062 1.52679V8.47318C0.914062 8.65667 0.960835 8.82796 1.03717 8.98228L5.00646 5.00012L1.03719 1.0177Z" fill="black"/>
<path d="M13.9634 1.01758L9.99414 5.00005L13.9634 8.98226C14.0397 8.82794 14.0865 8.65665 14.0865 8.47311V1.52672C14.0865 1.34318 14.0397 1.17189 13.9634 1.01758Z" fill="black"/>
</g>
<defs>
<clipPath id="clip0_1639_8573">
<rect width="13.1724" height="9.55" fill="white" transform="translate(0.914062 0.224976)"/>
</clipPath>
</defs>
</svg>
