<svg width="13" height="14" viewBox="0 0 13 14" fill="none" xmlns="http://www.w3.org/2000/svg">
<g clip-path="url(#clip0_1639_8593)">
<path d="M12.6516 12.4316V12.4311H12.6547V7.92107C12.6547 5.71473 12.1797 4.01514 9.60033 4.01514C8.36035 4.01514 7.52824 4.69559 7.18852 5.34068H7.15266V4.22112H4.70703V12.4311H7.2536V8.36582C7.2536 7.29544 7.4565 6.26042 8.78205 6.26042C10.0881 6.26042 10.1076 7.48195 10.1076 8.43448V12.4316H12.6516Z" fill="black"/>
<path d="M0.558594 4.22168H3.10823V12.4317H0.558594V4.22168Z" fill="black"/>
<path d="M1.83412 0.134277C1.01891 0.134277 0.357422 0.79577 0.357422 1.61098C0.357422 2.42619 1.01891 3.10151 1.83412 3.10151C2.64933 3.10151 3.31082 2.42619 3.31082 1.61098C3.31031 0.79577 2.64882 0.134277 1.83412 0.134277V0.134277Z" fill="black"/>
</g>
<defs>
<clipPath id="clip0_1639_8593">
<rect width="12.4865" height="14" fill="white" transform="translate(0.257812)"/>
</clipPath>
</defs>
</svg>
