<svg width="15" height="14" viewBox="0 0 15 14" fill="none" xmlns="http://www.w3.org/2000/svg">
<path d="M13.6506 10.0465L11.833 8.22884C11.1839 7.57968 10.0803 7.83937 9.82063 8.68325C9.62589 9.26751 8.97673 9.59209 8.39249 9.46223C7.09418 9.13765 5.34147 7.44985 5.01689 6.08663C4.82214 5.50236 5.21164 4.85321 5.79588 4.65849C6.63978 4.39883 6.89944 3.29526 6.25028 2.64611L4.43265 0.828477C3.91333 0.374069 3.13434 0.374069 2.67993 0.828477L1.44654 2.06187C0.213148 3.36018 1.57637 6.8007 4.6274 9.85172C7.67842 12.9027 11.1189 14.3309 12.4173 13.0326L13.6506 11.7992C14.1051 11.2799 14.1051 10.5009 13.6506 10.0465Z" fill="black"/>
</svg>
