<svg width="16" height="16" viewBox="0 0 16 16" fill="none" xmlns="http://www.w3.org/2000/svg">
<path d="M15.0909 11.9089L12.9976 9.81557C12.25 9.06797 10.979 9.36704 10.68 10.3389C10.4557 11.0118 9.70811 11.3856 9.03527 11.236C7.54006 10.8622 5.52153 8.91845 5.14773 7.34848C4.92345 6.67561 5.37201 5.928 6.04485 5.70375C7.01674 5.40471 7.31578 4.13378 6.56818 3.38618L4.47488 1.29288C3.8768 0.76956 2.97967 0.76956 2.45635 1.29288L1.0359 2.71333C-0.384545 4.20854 1.18542 8.17084 4.69916 11.6846C8.21291 15.1983 12.1752 16.8431 13.6704 15.3478L15.0909 13.9274C15.6142 13.3293 15.6142 12.4322 15.0909 11.9089Z" fill="#E1EFEB"/>
</svg>
